<svg width="250" height="50" viewBox="0 0 250 50" fill="none" xmlns="http://www.w3.org/2000/svg">
<path fill-rule="evenodd" clip-rule="evenodd" d="M209.062 30.8437V30.9359C209.013 36.0436 204.932 40.169 199.902 40.169C194.842 40.169 190.74 35.9939 190.74 30.8431C190.74 25.6929 194.842 21.5156 199.902 21.5156C204.962 21.5156 209.063 25.6929 209.063 30.8431H209.062V30.8437ZM199.902 12.1914C189.783 12.1914 181.581 20.5428 181.581 30.8437C181.581 41.1435 189.783 49.4948 199.902 49.4948C203.241 49.4948 206.371 48.5814 209.066 46.9938V49.496H218.225V30.8431C218.225 20.5422 210.022 12.1914 199.902 12.1914Z" fill="#009C39"/>
<path fill-rule="evenodd" clip-rule="evenodd" d="M68.0571 39.4669C67.1299 39.9171 66.0938 40.1745 64.9971 40.1745C61.0633 40.1745 57.8727 36.9263 57.8727 32.9203L57.8749 21.5216L64.8094 21.5199C64.8094 21.5182 65.9577 17.4093 65.9577 12.1952L57.8749 12.1969V1.28516C52.7516 1.28516 48.7122 2.66291 48.7122 2.66291C48.7122 2.66291 48.7144 8.26725 48.7133 12.1935H48.7122V32.8994V32.9192C48.7122 42.0742 56.0038 49.4975 64.9971 49.4975C68.0755 49.4975 70.9527 48.6254 73.4082 47.1124C71.121 45.0051 69.2833 42.4006 68.0571 39.4669Z" fill="#009C39"/>
<path fill-rule="evenodd" clip-rule="evenodd" d="M185.52 14.5759C183.065 13.0647 180.188 12.1914 177.108 12.1914C168.115 12.1914 160.824 19.6147 160.824 28.7686C160.824 28.7759 160.824 28.7827 160.824 28.7889V49.496H169.984L169.985 28.7691C169.985 24.7643 173.174 21.5161 177.107 21.5161C178.205 21.5161 179.241 21.7729 180.169 22.2231C181.394 19.2894 183.233 16.6849 185.52 14.5759Z" fill="#009C39"/>
<path fill-rule="evenodd" clip-rule="evenodd" d="M5.00833 0.5C2.24222 0.5 0 2.78325 0 5.59758C0 8.41473 2.24222 10.698 5.00833 10.698C7.77499 10.698 10.0172 8.41473 10.0172 5.59758C10.0172 2.78325 7.77499 0.5 5.00833 0.5Z" fill="#009C39"/>
<path fill-rule="evenodd" clip-rule="evenodd" d="M29.33 12.1953C20.3366 12.1953 13.0444 19.618 13.0444 28.7725C13.0444 28.7781 13.045 28.7855 13.045 28.7911V49.4987H22.2055V28.7725C22.2055 24.7665 25.3961 21.5183 29.33 21.5183C33.2661 21.5183 36.455 24.7665 36.455 28.7725V49.4987H45.6161V28.7725C45.6161 19.6174 38.325 12.1953 29.33 12.1953Z" fill="#009C39"/>
<path fill-rule="evenodd" clip-rule="evenodd" d="M0.428223 49.4987H9.58932V12.1953C4.46544 12.1953 0.428223 13.5731 0.428223 13.5731V49.4987Z" fill="#009C39"/>
<path fill-rule="evenodd" clip-rule="evenodd" d="M108.364 49.4975H117.526V1.28516C112.513 1.28685 108.536 2.60466 108.373 2.66008L108.364 49.4975Z" fill="#009C39"/>
<path fill-rule="evenodd" clip-rule="evenodd" d="M139.549 40.1716C134.49 40.1716 130.388 35.9954 130.388 30.8458H130.39V30.7762C130.427 25.6566 134.513 21.5188 139.548 21.5188C144.609 21.5188 148.711 25.6945 148.711 30.8452C148.712 35.9954 144.61 40.1716 139.549 40.1716ZM139.549 12.1935C136.211 12.1935 133.085 13.1069 130.391 14.6951L130.388 1.28516C125.368 1.28685 121.385 2.60918 121.235 2.66008C121.235 2.66008 121.227 30.8237 121.227 30.8458C121.227 41.1456 129.431 49.4969 139.549 49.4969C149.67 49.4969 157.872 41.145 157.872 30.8458C157.872 20.5454 149.67 12.1935 139.549 12.1935Z" fill="#009C39"/>
<path fill-rule="evenodd" clip-rule="evenodd" d="M78.7739 29.6361C79.435 24.526 84.0395 20.9295 89.0567 21.602C90.0978 21.7417 91.0739 22.0567 91.9628 22.5092L78.8828 32.7275C78.6828 31.7366 78.6373 30.6965 78.7739 29.6361ZM105.582 35.2608C100.857 33.3508 96.7256 33.2122 96.7256 33.2122C95.5789 37.7035 91.2995 40.7248 86.665 40.1027C85.6239 39.9641 84.6478 39.6491 83.7584 39.1961L104.479 23.0097C101.924 17.4161 96.7028 13.2308 90.2517 12.3666C80.2223 11.0228 71.0228 18.2102 69.7023 28.4195C68.3817 38.6294 75.4417 47.9954 85.4695 49.3392C94.7367 50.5818 103.295 44.2422 105.584 35.2613L105.582 35.2608Z" fill="#009C39"/>
<path fill-rule="evenodd" clip-rule="evenodd" d="M238.859 26.8092L232.833 26.803C231.397 26.803 230.233 25.6193 230.233 24.1567C230.233 22.6958 231.397 21.5114 232.833 21.5114H245.994C246.047 21.3452 247.343 17.3278 247.344 12.2252C247.344 12.2252 233.091 12.2246 232.213 12.2246C226.061 12.2246 221.073 17.3018 221.073 23.5656C221.073 29.8294 226.06 34.9123 232.213 34.9123H238.239C239.675 34.9123 240.839 36.0966 240.839 37.5581C240.839 39.0201 239.675 40.2039 238.239 40.2039H223.311C223.256 40.3702 221.961 44.3875 221.96 49.4907C221.96 49.4907 238.638 49.4913 238.859 49.4913C245.012 49.4913 250 44.4141 250 38.1503C250 31.887 245.012 26.8092 238.859 26.8092Z" fill="#009C39"/>
</svg>
