<svg width="174" height="66" viewBox="0 0 174 66" fill="none" xmlns="http://www.w3.org/2000/svg">
<path fill-rule="evenodd" clip-rule="evenodd" d="M53.5716 21.2371C45.7485 16.6642 40.5345 15.6198 34.949 15.6198C31.8453 15.6198 28.3679 16.401 27.8711 19.5366C27.4975 22.2795 29.9813 22.9355 35.1974 24.1116C44.7571 26.2027 54.4399 28.9477 55.6797 39.2716L60.8979 12.2188L53.5716 21.2371ZM125.589 22.0205L139.863 2.67823H161.095L131.051 39.9255L126.582 63.1867H108.454L113.543 37.1805L104.232 20.32L92.065 34.306L108.454 63.1867H86.6026L73.8097 39.1421L69.4619 63.1867H51.0877L53.6947 49.3344C48.7291 61.2272 39.4179 65.1504 26.7544 65.1504C16.076 65.1504 6.26794 61.7494 0.928711 55.6056L10.9851 43.1927C15.3287 47.636 22.0372 49.9883 29.113 49.9883C34.0765 49.9883 37.0593 48.0288 37.1803 45.4133C37.3055 40.9699 29.9813 40.3161 23.277 38.3566C15.7023 36.136 7.633 30.7776 9.74322 19.5366C11.3567 10.911 18.6809 0.848244 37.3055 0.848244C47.7356 0.848244 55.4334 3.32998 61.7641 8.03656L62.7555 2.67823H81.136L75.7947 28.9477L97.4021 2.67823H115.655L125.589 22.0205Z" fill="#009C39"/>
<path d="M166.845 8.25129H168.316C168.925 8.25129 169.309 7.95833 169.462 7.37664C169.613 6.80768 169.407 6.52533 168.842 6.52533H167.299L166.845 8.25129ZM164.955 11.026L166.405 5.53816H169.201C170.437 5.53816 170.904 6.10499 170.604 7.24289C170.386 8.06872 169.974 8.56337 169.367 8.73108C169.855 8.85634 170.021 9.21511 169.866 9.80742L169.543 11.026H168.388L168.656 10.0112C168.791 9.49534 168.592 9.23634 168.055 9.23634H166.584L166.112 11.026H164.955ZM169.114 4.10092C167.968 4.10092 166.883 4.51277 165.851 5.33648C164.822 6.16231 164.151 7.15797 163.843 8.32772C163.535 9.49747 163.679 10.4953 164.272 11.3211C164.866 12.149 165.739 12.5609 166.885 12.5609C168.029 12.5609 169.114 12.149 170.142 11.3211C171.167 10.4953 171.836 9.49747 172.144 8.32772C172.451 7.16222 172.309 6.16868 171.719 5.34072C171.131 4.51277 170.261 4.10092 169.114 4.10092ZM169.301 3.42582C170.645 3.42582 171.666 3.90348 172.371 4.86094C173.073 5.81839 173.248 6.97328 172.891 8.32772C172.534 9.68004 171.751 10.8371 170.541 11.7987C169.333 12.7583 168.055 13.2402 166.713 13.2402C165.354 13.2402 164.325 12.7583 163.616 11.8009C162.911 10.8434 162.739 9.68641 163.096 8.32772C163.452 6.97328 164.238 5.81839 165.45 4.86094C166.66 3.90348 167.944 3.42582 169.301 3.42582Z" fill="#9ECE79"/>
</svg>
