<svg width="200" height="148" viewBox="0 0 200 148" fill="none" xmlns="http://www.w3.org/2000/svg">
<path d="M98.0655 0.467573C98.2004 0.466112 98.2004 0.466112 98.338 0.464621C100.226 0.448355 102.053 0.436804 103.897 0.891226C103.976 0.90941 104.055 0.927595 104.136 0.94633C107.604 1.75654 110.696 3.60889 113.253 6.05569C113.373 6.1694 113.493 6.28167 113.614 6.39363C114.746 7.47257 115.655 8.82206 116.467 10.1499C116.505 10.2108 116.542 10.2718 116.581 10.3346C117.165 11.3064 117.297 12.048 117.019 13.1648C116.994 13.2631 116.968 13.3613 116.942 13.4626C116.915 13.5673 116.888 13.6721 116.861 13.78C116.539 15.0168 116.168 16.2381 115.792 17.4594C115.717 17.7057 115.641 17.952 115.566 18.1984C115.343 18.927 115.118 19.6552 114.893 20.3831C114.844 20.5398 114.844 20.5398 114.795 20.6995C113.976 23.3414 113.102 25.9604 112.176 28.5663C112.03 28.9776 111.885 29.3893 111.741 29.8013C108.798 38.1987 105.219 46.4175 99.0991 57.8676C98.7775 57.5995 98.6278 57.2526 98.4544 56.8813C98.405 56.7773 98.405 56.7773 98.3546 56.6712C98.2459 56.4415 98.1382 56.2112 98.0308 55.9809C97.9934 55.9012 97.9559 55.8214 97.9174 55.7393C95.2732 50.0995 92.9962 44.2752 91.0024 38.3757C90.9684 38.2751 90.9344 38.1745 90.8993 38.0708C89.2096 33.0638 87.7121 28.0022 86.4043 22.8821C86.3773 22.7764 86.3503 22.6707 86.3225 22.5618C85.3873 18.8917 84.545 15.2048 83.7705 11.4977C83.7279 11.294 83.6849 11.0903 83.6415 10.8867C83.5832 10.6128 83.5259 10.3386 83.4688 10.0644C83.452 9.98633 83.4352 9.90828 83.4178 9.82787C83.1675 8.6044 83.1675 8.6044 83.5145 8.06091C83.6074 7.95576 83.7024 7.85246 83.7992 7.75088C83.849 7.69552 83.8988 7.64016 83.9502 7.58313C84.0519 7.47052 84.1544 7.35866 84.2577 7.24757C84.4695 7.01935 84.6739 6.78479 84.88 6.55138C86.3775 4.90832 88.1346 3.61433 90.1028 2.59052C90.1696 2.55573 90.2365 2.52094 90.3053 2.4851C92.6852 1.26597 95.3835 0.491758 98.0655 0.467573ZM95.5006 2.49056C95.4254 2.50718 95.3502 2.52381 95.2727 2.54093C92.7454 3.10453 90.3517 4.205 88.3035 5.78919C88.2119 5.85852 88.1203 5.92784 88.0259 5.99926C87.1857 6.65812 86.4484 7.42476 85.7046 8.1882C85.9301 8.41368 86.0436 8.44241 86.3469 8.52205C86.4395 8.54726 86.5322 8.57248 86.6276 8.59845C86.7291 8.62594 86.8307 8.65343 86.9354 8.68175C89.3681 9.36804 91.6919 10.3686 94.0012 11.3869C94.0895 11.4257 94.1779 11.4646 94.2689 11.5046C94.8484 11.7602 95.425 12.0218 96.0003 12.2865C96.1061 12.3351 96.2118 12.3837 96.3207 12.4338C99.2048 13.7634 102.055 15.16 104.897 16.5785C104.993 16.6263 105.089 16.6741 105.187 16.7234C106.396 17.3262 107.595 17.9424 108.788 18.5747C109.285 18.8369 109.784 19.0942 110.282 19.3523C111.052 19.7514 111.819 20.1542 112.577 20.5756C112.783 20.6979 112.783 20.6979 112.993 20.683C114.009 17.4131 114.009 17.4131 114.979 14.1291C115.017 13.9974 115.055 13.8658 115.093 13.7344C115.449 12.599 115.449 12.599 115.26 11.4587C114.416 10.0461 113.436 8.77161 112.294 7.58845C112.201 7.48904 112.107 7.3896 112.014 7.29013C109.111 4.23467 104.65 2.27347 100.437 2.16422C100.049 2.15809 99.6618 2.15764 99.274 2.15945C99.1519 2.15972 99.1519 2.15972 99.0273 2.16C97.8274 2.16452 96.6721 2.21122 95.5006 2.49056Z" fill="#009C39"/>
<path d="M111.296 84.6959C111.803 85.1094 112.189 85.5336 112.55 86.0828C112.655 86.2426 112.655 86.2426 112.762 86.4056C112.819 86.491 112.819 86.491 112.876 86.5782C113.08 86.8887 113.287 87.1979 113.493 87.5073C113.581 87.6406 113.67 87.7739 113.759 87.9072C114.565 89.118 115.373 90.3264 116.193 91.5278C116.932 92.6108 117.664 93.6976 118.397 94.7843C118.46 94.8779 118.523 94.9714 118.588 95.0678C119.732 96.7635 119.732 96.7635 120.187 97.4477C120.546 97.9868 120.908 98.5234 121.271 99.0599C121.332 99.151 121.394 99.2422 121.457 99.3361C121.714 99.7154 121.97 100.095 122.226 100.474C122.416 100.754 122.606 101.035 122.795 101.315C122.851 101.398 122.907 101.481 122.965 101.567C123.304 102.068 123.634 102.574 123.961 103.083C124.002 103.147 124.043 103.212 124.086 103.278C124.187 103.435 124.288 103.592 124.388 103.749C124.389 103.616 124.389 103.616 124.389 103.481C124.395 101.32 124.403 99.1588 124.412 96.9979C124.416 95.9529 124.42 94.908 124.423 93.863C124.425 92.9519 124.429 92.0409 124.433 91.1298C124.436 90.6477 124.438 90.1655 124.438 89.6833C124.439 89.2289 124.441 88.7746 124.444 88.3202C124.445 88.154 124.445 87.9877 124.445 87.8215C124.444 86.7254 124.446 85.6393 125.188 84.7572C125.895 84.0751 126.713 83.8505 127.681 83.8201C128.663 83.8507 129.581 84.034 130.286 84.7572C130.956 85.57 131.016 86.5018 131.012 87.5205C131.012 87.6241 131.013 87.7277 131.013 87.8345C131.014 88.1797 131.014 88.525 131.013 88.8703C131.014 89.1186 131.014 89.3669 131.015 89.6153C131.016 90.2187 131.016 90.8221 131.016 91.4255C131.016 91.9163 131.016 92.4071 131.016 92.8979C131.016 92.9679 131.016 93.0379 131.017 93.11C131.017 93.2523 131.017 93.3945 131.017 93.5367C131.018 94.869 131.018 96.2013 131.017 97.5336C131.017 98.7506 131.018 99.9675 131.02 101.184C131.022 102.436 131.022 103.688 131.022 104.939C131.022 105.641 131.022 106.343 131.024 107.045C131.025 107.705 131.025 108.365 131.023 109.025C131.023 109.267 131.023 109.509 131.024 109.751C131.034 112.904 131.034 112.904 130.086 113.945C129.25 114.663 128.334 114.901 127.25 114.888C127.157 114.888 127.065 114.887 126.97 114.886C125.775 114.856 124.886 114.477 124.055 113.606C123.591 113.086 123.219 112.509 122.839 111.927C122.329 111.153 121.812 110.385 121.277 109.628C120.751 108.882 120.24 108.128 119.735 107.367C119.071 106.366 118.394 105.374 117.717 104.381C117.329 103.811 116.942 103.24 116.554 102.669C116.474 102.551 116.394 102.433 116.315 102.315C116.154 102.079 115.993 101.842 115.833 101.605C115.475 101.078 115.118 100.552 114.761 100.025C114.643 99.8518 114.526 99.6786 114.408 99.5054C114.04 98.9629 113.672 98.4204 113.304 97.8781C113.131 97.6243 112.959 97.3704 112.786 97.1166C112.705 96.9965 112.623 96.8765 112.542 96.7565C112.428 96.5891 112.315 96.4218 112.201 96.2544C112.137 96.1597 112.072 96.0649 112.006 95.9673C111.83 95.7065 111.655 95.4451 111.481 95.1832C111.427 95.1026 111.373 95.0219 111.318 94.9388C111.277 94.8775 111.236 94.8162 111.194 94.7531C111.194 94.8455 111.194 94.9379 111.193 95.0331C111.19 97.2832 111.184 99.5333 111.176 101.783C111.172 102.872 111.168 103.96 111.167 105.048C111.166 105.996 111.163 106.945 111.158 107.893C111.156 108.396 111.155 108.898 111.155 109.4C111.155 109.873 111.153 110.346 111.15 110.819C111.149 110.992 111.149 111.165 111.149 111.338C111.152 112.33 111.118 113.132 110.537 113.972C109.766 114.737 109.005 114.883 107.945 114.895C107.007 114.886 106.358 114.741 105.565 114.233C105.016 113.645 104.685 112.908 104.683 112.102C104.683 111.969 104.683 111.969 104.682 111.833C104.682 111.735 104.682 111.638 104.683 111.538C104.682 111.383 104.682 111.383 104.682 111.224C104.681 110.876 104.681 110.528 104.681 110.179C104.68 109.93 104.68 109.681 104.679 109.432C104.678 108.754 104.677 108.076 104.677 107.398C104.676 106.974 104.676 106.55 104.675 106.126C104.674 104.953 104.673 103.779 104.673 102.605C104.673 102.53 104.673 102.455 104.673 102.377C104.673 102.302 104.673 102.227 104.673 102.149C104.673 101.996 104.673 101.844 104.673 101.691C104.673 101.615 104.673 101.54 104.673 101.462C104.672 100.237 104.67 99.0117 104.668 97.7867C104.666 96.5279 104.664 95.2692 104.664 94.0104C104.664 93.304 104.664 92.5977 104.662 91.8914C104.66 91.2265 104.66 90.5616 104.661 89.8967C104.661 89.6532 104.661 89.4097 104.66 89.1661C104.648 86.0392 104.648 86.0392 105.596 84.9571C107.115 83.4974 109.632 83.4748 111.296 84.6959Z" fill="#009C39"/>
<path d="M83.3321 84.1293C83.4744 84.1288 83.6167 84.1283 83.759 84.1277C84.1431 84.1264 84.5272 84.1263 84.9114 84.1266C85.233 84.1267 85.5547 84.1262 85.8764 84.1257C86.6357 84.1246 87.395 84.1246 88.1543 84.1252C88.9355 84.1258 89.7168 84.1245 90.498 84.1224C91.1708 84.1206 91.8436 84.12 92.5164 84.1204C92.9173 84.1206 93.3182 84.1203 93.7192 84.1189C94.0963 84.1176 94.4735 84.1178 94.8507 84.1191C95.0536 84.1195 95.2566 84.1184 95.4596 84.1172C96.4834 84.123 97.3724 84.2215 98.1303 84.9564C98.7154 85.6483 98.8245 86.4692 98.7991 87.3554C98.6856 88.1923 98.3693 88.8521 97.725 89.4042C96.8488 90.018 95.765 90.0994 94.7273 90.0883C94.6169 90.0884 94.5066 90.0884 94.3929 90.0884C94.0327 90.0882 93.6725 90.0859 93.3123 90.0836C93.0608 90.083 92.8093 90.0826 92.5578 90.0823C91.9662 90.0812 91.3747 90.0789 90.7832 90.0759C89.924 90.0716 89.0649 90.07 88.2057 90.0681C87.0055 90.0652 85.8053 90.0595 84.605 90.0543C84.605 91.9675 84.605 93.8807 84.605 95.8519C85.6557 95.8467 85.6557 95.8467 86.7276 95.8413C87.1731 95.8398 87.6186 95.8384 88.0641 95.8372C88.7702 95.8354 89.4763 95.8333 90.1824 95.8292C90.7521 95.826 91.3218 95.8242 91.8915 95.8234C92.1082 95.8229 92.3248 95.8218 92.5414 95.8202C95.3974 95.7996 95.3974 95.7996 96.3318 96.5844C96.9218 97.1702 97.2186 97.775 97.2379 98.6216C97.2354 99.4645 97.1937 100.192 96.6235 100.855C95.787 101.649 94.8241 101.765 93.7173 101.761C93.6188 101.761 93.5202 101.761 93.4187 101.761C93.0937 101.761 92.7686 101.76 92.4436 101.759C92.2179 101.759 91.9923 101.759 91.7667 101.759C91.1733 101.758 90.5799 101.757 89.9865 101.756C89.2742 101.755 88.562 101.755 87.8498 101.754C86.7682 101.753 85.6866 101.751 84.605 101.749C84.605 104.058 84.605 106.368 84.605 108.747C85.4137 108.743 86.2224 108.74 87.0556 108.736C87.5694 108.734 88.0833 108.733 88.5971 108.732C89.4118 108.73 90.2265 108.728 91.0412 108.724C91.6984 108.721 92.3556 108.719 93.0128 108.718C93.2629 108.718 93.513 108.716 93.7631 108.715C94.1148 108.713 94.4664 108.712 94.8181 108.712C94.9203 108.711 95.0226 108.71 95.1279 108.709C96.209 108.714 97.1964 108.882 97.9995 109.646C98.6328 110.314 98.7966 111.048 98.7991 111.945C98.7394 112.74 98.3786 113.364 97.821 113.924C96.9241 114.67 95.8186 114.688 94.7022 114.683C94.5653 114.683 94.4284 114.684 94.2915 114.684C93.9228 114.686 93.5542 114.685 93.1855 114.684C92.7975 114.684 92.4095 114.684 92.0215 114.685C91.37 114.685 90.7185 114.685 90.067 114.683C89.3169 114.682 88.5668 114.682 87.8167 114.684C87.1696 114.685 86.5225 114.685 85.8754 114.684C85.4903 114.684 85.1052 114.684 84.7201 114.685C84.3576 114.686 83.9951 114.685 83.6326 114.683C83.4384 114.683 83.2442 114.684 83.05 114.685C81.5802 114.674 80.1929 114.368 79.0893 113.347C78.2294 112.39 77.9925 111.353 77.9937 110.105C77.9934 110.011 77.9931 109.917 77.9928 109.82C77.9919 109.506 77.9918 109.191 77.9916 108.877C77.9912 108.651 77.9907 108.426 77.9901 108.2C77.9888 107.587 77.9882 106.974 77.9877 106.362C77.9874 105.979 77.987 105.595 77.9866 105.212C77.9854 104.15 77.9843 103.089 77.984 102.027C77.984 101.959 77.984 101.891 77.9839 101.821C77.9839 101.753 77.9839 101.685 77.9839 101.615C77.9838 101.477 77.9838 101.339 77.9837 101.201C77.9837 101.133 77.9837 101.064 77.9837 100.994C77.9833 99.8863 77.9815 98.7789 77.9792 97.6715C77.9768 96.5329 77.9756 95.3943 77.9755 94.2557C77.9754 93.6171 77.9748 92.9785 77.973 92.3399C77.9713 91.7388 77.9711 91.1378 77.972 90.5367C77.9721 90.3167 77.9717 90.0967 77.9707 89.8767C77.9635 88.1761 78.0298 86.7254 79.2073 85.3875C80.3563 84.3099 81.8308 84.1264 83.3321 84.1293Z" fill="#009C39"/>
<path d="M75.8087 21.4824C76.0711 21.5199 76.0711 21.5199 76.3085 21.5824C76.7522 22.8412 77.1111 24.1226 77.4748 25.4063C78.3292 28.4146 79.2417 31.4022 80.2068 34.3771C80.2446 34.4934 80.2823 34.6098 80.3212 34.7297C81.1942 37.4179 82.0958 40.0945 83.0682 42.7486C83.1041 42.8472 83.1401 42.9458 83.1772 43.0473C83.8702 44.9403 84.6683 46.7818 85.4961 48.619C86.1052 49.9714 86.7073 51.3269 87.3028 52.6854C87.4164 52.9444 87.5301 53.2034 87.6439 53.4623C87.9653 54.1943 88.2861 54.9265 88.6016 55.661C89.4144 57.5526 90.2985 59.367 91.3022 61.166C91.4004 61.3432 91.4983 61.5205 91.5962 61.6978C92.0978 62.6064 92.6017 63.5138 93.1144 64.4162C93.1612 64.4991 93.2081 64.5821 93.2564 64.6676C93.3415 64.818 93.4271 64.9682 93.5134 65.1179C93.9024 65.8072 93.9024 65.8072 93.9012 66.1639C93.6387 66.5506 93.3936 66.7548 92.9754 66.9573C92.8726 67.0073 92.7698 67.0573 92.6638 67.1089C92.5547 67.1599 92.4455 67.2109 92.3331 67.2634C92.2211 67.3164 92.1091 67.3693 91.9937 67.4239C91.1138 67.8307 90.2469 68.1464 89.3031 68.363C89.2068 68.3859 89.1106 68.4089 89.0114 68.4325C85.9676 69.0709 82.6892 68.3852 80.0757 66.7324C79.3709 66.2687 78.7335 65.7283 78.1077 65.1643C78.035 65.1 77.9624 65.0357 77.8875 64.9695C77.0371 64.1727 76.3444 63.1644 75.7837 62.1468C75.7507 62.0869 75.7176 62.027 75.6836 61.9652C75.4953 61.6004 75.373 61.2514 75.278 60.8516C75.082 59.9265 75.082 59.9265 74.5041 59.2261C73.987 58.9947 73.4386 58.8793 72.8899 58.7473C71.7118 58.4093 70.5509 57.6359 69.6112 56.8677C69.5563 56.8232 69.5013 56.7786 69.4447 56.7327C66.7716 54.5516 65.0121 51.6524 64.3134 48.2713C64.2796 48.1115 64.2796 48.1115 64.2451 47.9484C63.5262 43.8777 64.9206 40.3143 66.958 36.8803C67.2896 36.3195 67.6034 35.7505 67.9119 35.1767C68.3243 34.4118 68.752 33.6579 69.1927 32.9089C69.6899 32.0636 70.1741 31.2122 70.6483 30.3537C71.2317 29.2976 71.8252 28.248 72.4254 27.2014C72.7921 26.5618 73.1567 25.9211 73.518 25.2785C74.0133 24.3978 74.5154 23.5216 75.0277 22.6507C75.083 22.5563 75.1383 22.462 75.1953 22.3647C75.2722 22.2347 75.2722 22.2347 75.3507 22.1021C75.4183 21.9874 75.4183 21.9874 75.4874 21.8704C75.6088 21.6823 75.6088 21.6823 75.8087 21.4824ZM75.109 25.9806C75.0709 26.0498 75.0328 26.1189 74.9935 26.1902C74.3116 27.4274 73.6263 28.6613 72.9099 29.8789C72.3437 30.8416 71.7974 31.8142 71.2573 32.7917C70.8782 33.4773 70.4949 34.1601 70.1048 34.8394C69.6016 35.7158 69.1059 36.5962 68.6134 37.4787C68.3589 37.9347 68.1041 38.3905 67.8444 38.8436C66.0725 41.9369 65.283 45.2227 66.2006 48.7455C66.7934 50.8881 67.8374 52.6161 69.3114 54.2688C69.3758 54.3418 69.4402 54.4147 69.5066 54.4898C70.7309 55.7939 72.5477 56.991 74.3093 57.3675C74.4996 57.1772 74.4332 56.8385 74.4402 56.5855C74.4423 56.5125 74.4445 56.4395 74.4467 56.3642C74.4539 56.114 74.4605 55.8638 74.467 55.6136C74.4722 55.4303 74.4774 55.2471 74.4827 55.0639C74.4973 54.5501 74.5113 54.0364 74.5252 53.5226C74.5404 52.9675 74.556 52.4123 74.5716 51.8572C74.5783 51.6191 74.585 51.3811 74.5917 51.143C74.5951 51.021 74.5985 50.8989 74.6021 50.7732C74.6129 50.3858 74.6237 49.9983 74.6345 49.6109C74.6919 47.5518 74.7526 45.4928 74.8141 43.4338C74.8343 42.7589 74.8543 42.0841 74.8743 41.4092C74.8771 41.3132 74.88 41.2172 74.8829 41.1183C74.8973 40.632 74.9116 40.1457 74.926 39.6595C74.9545 38.6939 74.9833 37.7284 75.0124 36.7629C75.0376 35.9266 75.0625 35.0904 75.0869 34.2541C75.0995 33.8224 75.1122 33.3907 75.1255 32.9591C75.1969 30.6322 75.222 28.3085 75.2089 25.9806C75.1759 25.9806 75.1429 25.9806 75.109 25.9806ZM76.7083 59.6666C76.9102 60.3397 77.0785 60.8706 77.4205 61.4596C77.4599 61.5282 77.4993 61.5967 77.5398 61.6674C77.9041 62.2859 78.3221 62.8356 78.8074 63.3651C78.8917 63.4574 78.976 63.5498 79.0628 63.645C80.8429 65.5103 83.4555 66.8036 86.0587 66.8937C86.2468 66.8956 86.4349 66.896 86.6229 66.8948C86.723 66.8943 86.8231 66.8937 86.9262 66.8931C88.6331 66.8655 90.2314 66.4405 91.7021 65.5641C91.2113 64.5426 90.6788 63.551 90.1124 62.5693C89.5829 61.6465 89.1004 60.7109 88.6034 59.7665C84.678 59.7336 80.7526 59.7006 76.7083 59.6666Z" fill="#009C39"/>
<path d="M189.043 83.7197C189.122 83.7202 189.2 83.7206 189.281 83.7211C191.85 83.7389 194.238 84.227 196.559 85.3565C196.66 85.4047 196.762 85.4529 196.867 85.5025C197.87 86.0097 198.963 86.8629 199.445 87.9117C199.709 88.737 199.672 89.6063 199.314 90.3919C198.821 91.2559 198.179 91.7952 197.227 92.0912C195.934 92.3921 194.839 91.7107 193.729 91.1113C191.537 89.9321 189.397 89.2294 186.898 89.9288C186.158 90.1863 185.538 90.6149 185.119 91.2861C184.773 92.0412 184.727 92.8949 184.97 93.6906C185.289 94.3794 185.967 94.7504 186.638 95.04C186.714 95.0732 186.79 95.1065 186.868 95.1407C188.085 95.6521 189.373 95.9749 190.642 96.3307C192.954 96.9831 195.263 97.8369 197.159 99.3507C197.275 99.4427 197.275 99.4427 197.394 99.5366C198.815 100.722 199.789 102.496 199.957 104.349C200.03 105.85 200.069 107.318 199.558 108.747C199.521 108.852 199.485 108.958 199.448 109.067C198.586 111.345 196.678 113.008 194.507 114.007C190.571 115.699 185.656 115.406 181.72 113.84C180.186 113.198 178.525 112.364 177.729 110.827C177.439 110.111 177.464 109.353 177.717 108.628C178.119 107.75 178.778 107.121 179.666 106.748C180.583 106.458 181.522 106.632 182.365 107.048C182.684 107.227 182.997 107.419 183.309 107.611C185.484 108.951 188.054 109.442 190.561 108.947C191.524 108.696 192.375 108.3 192.91 107.435C193.353 106.645 193.408 105.68 193.202 104.8C192.75 103.771 191.684 103.239 190.695 102.839C189.493 102.376 188.264 102.001 187.023 101.66C184.617 100.996 182.038 100.181 180.166 98.4511C180.062 98.3552 180.062 98.3552 179.956 98.2574C178.715 96.9934 178.133 95.0917 178.066 93.3532C178.062 93.27 178.059 93.1867 178.054 93.101C177.991 90.5622 178.9 88.4856 180.622 86.656C182.854 84.4848 186.006 83.6874 189.043 83.7197Z" fill="#009C39"/>
<path d="M146.775 83.7373C146.885 83.7362 146.885 83.7362 146.997 83.7351C150.116 83.7119 150.116 83.7119 151.578 84.0574C151.662 84.0773 151.746 84.0972 151.833 84.1176C153.98 84.6415 156.596 85.5355 157.875 87.4685C158.319 88.2665 158.417 89.1323 158.169 90.0112C157.833 90.8945 157.202 91.5181 156.376 91.9542C155.605 92.2623 154.88 92.2652 154.119 91.9417C153.481 91.6663 152.875 91.3419 152.265 91.0108C150.132 89.8771 147.984 89.2233 145.58 89.955C145.228 90.096 144.905 90.2593 144.58 90.4548C144.488 90.5105 144.395 90.5661 144.299 90.6235C143.675 91.2839 143.509 91.9846 143.529 92.8771C143.559 93.4116 143.606 93.8546 143.981 94.2532C144.293 94.5019 144.622 94.6785 144.98 94.853C145.078 94.901 145.175 94.9491 145.276 94.9986C146.454 95.5384 147.706 95.8694 148.947 96.2305C150.76 96.7589 152.516 97.3401 154.176 98.2516C154.291 98.3142 154.405 98.3768 154.522 98.4413C155.342 98.9181 156.008 99.4854 156.675 100.151C156.742 100.215 156.809 100.28 156.878 100.346C158.44 101.972 158.719 104.201 158.696 106.351C158.636 108.737 157.49 110.631 155.851 112.271C153.228 114.739 149.581 115.163 146.152 115.061C144.04 114.966 141.904 114.543 139.982 113.645C139.907 113.61 139.831 113.575 139.753 113.539C138.375 112.886 137.11 112.148 136.384 110.746C136.16 110.074 136.171 109.218 136.44 108.56C136.86 107.764 137.521 107.068 138.366 106.737C139.303 106.474 140.223 106.62 141.082 107.048C141.404 107.239 141.72 107.438 142.037 107.639C144.172 108.963 146.811 109.475 149.279 108.947C150.258 108.691 151.144 108.23 151.702 107.352C152.07 106.546 152.116 105.557 151.827 104.724C151.306 103.591 150.05 103.088 148.945 102.659C147.875 102.267 146.778 101.963 145.68 101.656C142.878 100.871 139.307 99.7386 137.746 97.0708C136.621 95.0372 136.485 92.4764 137.084 90.2549C137.797 87.9411 139.416 86.2093 141.519 85.0758C143.137 84.2346 144.948 83.749 146.775 83.7373Z" fill="#009C39"/>
<path d="M51.319 84.2571C51.4551 84.3436 51.4551 84.3436 51.5939 84.432C52.1693 85.0074 52.4073 85.6459 52.5708 86.4292C52.5912 86.5206 52.6117 86.612 52.6327 86.7062C52.675 86.8961 52.7168 87.0862 52.7578 87.2764C52.8508 87.7052 52.9493 88.1327 53.0472 88.5603C53.0854 88.7285 53.1235 88.8967 53.1616 89.0649C54.4363 94.6616 56.0542 100.222 58.4217 105.462C58.4605 105.549 58.4994 105.636 58.5394 105.725C58.5737 105.8 58.6079 105.875 58.6432 105.952C58.7159 106.148 58.7159 106.148 58.7159 106.448C58.7819 106.448 58.8479 106.448 58.9159 106.448C58.9432 106.361 58.9706 106.273 58.9988 106.183C59.1092 105.867 59.2382 105.581 59.3887 105.282C59.4435 105.172 59.4982 105.061 59.5547 104.948C59.5839 104.889 59.613 104.831 59.6431 104.77C62.3124 99.3822 64.256 93.5859 65.7882 87.7832C66.5869 84.7751 66.5869 84.7751 67.6747 84.1196C68.6292 83.6601 69.9209 83.7364 70.9234 84.0197C71.6608 84.2871 72.1989 84.6132 72.6102 85.2941C74.1345 88.7938 70.4602 95.7279 69.1571 99.0525C68.086 101.769 66.9172 104.435 65.6131 107.048C65.5831 107.108 65.5532 107.168 65.5223 107.23C64.8152 108.648 64.0762 110.043 63.2703 111.408C63.2065 111.517 63.1428 111.625 63.0771 111.737C61.5141 114.345 61.5141 114.345 60.1735 114.778C58.9987 114.995 57.4797 115.057 56.4169 114.445C55.8841 114.061 55.5388 113.634 55.2111 113.07C55.1653 112.993 55.1195 112.916 55.0723 112.837C52.6512 108.716 50.8261 104.367 49.2892 99.8532C49.2216 99.6556 49.1531 99.4583 49.0843 99.2611C45.0474 87.6928 45.0474 87.6928 46.1829 85.275C46.6828 84.4855 47.4663 84.1261 48.3456 83.899C49.3289 83.7493 50.4658 83.6869 51.319 84.2571Z" fill="#009C39"/>
<path d="M5.438 84.2561C6.44442 85.1218 6.64423 86.3309 6.90059 87.5687C6.99637 88.0295 7.09621 88.4895 7.19586 88.9495C7.21606 89.0429 7.23626 89.1363 7.25707 89.2326C8.52852 95.0875 10.3628 100.886 12.8349 106.347C16.5805 101.62 18.2601 93.6252 19.8116 87.9212C20.6577 84.8112 20.6577 84.8112 21.8312 84.0562C22.3202 83.8483 22.7638 83.8177 23.2868 83.8188C23.3657 83.8189 23.4446 83.8191 23.5259 83.8193C24.5195 83.8398 25.5491 84.0674 26.2684 84.7969C26.7956 85.3892 26.9329 85.9791 26.9291 86.755C26.685 89.6234 25.5687 92.4482 24.63 95.1516C24.6041 95.2263 24.5782 95.301 24.5515 95.378C22.8143 100.377 20.7849 105.301 18.1464 109.896C17.9025 110.321 17.6658 110.749 17.4319 111.18C15.9152 113.965 15.9152 113.965 14.8279 114.475C14.7257 114.524 14.6235 114.573 14.5182 114.624C13.5229 115.044 12.0137 115.023 10.9982 114.687C7.45755 113.047 5.41286 105.591 4.17826 102.231C4.15534 102.168 4.13242 102.105 4.1088 102.041C4.06169 101.912 4.01448 101.783 3.96718 101.654C0.0508338 90.9919 0.0508337 90.9919 0.00899744 86.8613C0.00609825 86.7662 0.00319906 86.6712 0.000212018 86.5733C-0.00633135 85.8429 0.137392 85.3323 0.597035 84.7606C1.78104 83.7729 4.09302 83.3432 5.438 84.2561Z" fill="#009C39"/>
<path d="M124.07 23.8125C124.563 23.9189 124.718 24.2734 124.988 24.6809C125.233 25.0798 125.464 25.4856 125.694 25.8929C125.828 26.1269 125.961 26.3607 126.095 26.5945C126.145 26.6822 126.145 26.6822 126.196 26.7716C126.501 27.3044 126.812 27.833 127.125 28.3606C127.623 29.2005 128.118 30.042 128.612 30.8846C128.647 30.9454 128.683 31.0062 128.72 31.0689C128.865 31.3173 129.011 31.5656 129.156 31.814C129.412 32.2503 129.667 32.6865 129.923 33.1227C130.344 33.8405 130.765 34.5584 131.186 35.2765C131.25 35.3868 131.315 35.4971 131.382 35.6107C131.734 36.213 132.086 36.816 132.436 37.4198C132.571 37.6505 132.707 37.88 132.844 38.1093C134.777 41.3853 135.353 45.1276 134.447 48.8302C133.779 51.3982 132.487 53.5308 130.686 55.4681C130.626 55.5349 130.566 55.6016 130.504 55.6704C128.876 57.4002 126.602 58.5262 124.339 59.1416C124.23 59.1714 124.23 59.1714 124.12 59.2018C122.92 59.5099 121.709 59.5964 120.475 59.5923C120.341 59.5926 120.207 59.5929 120.073 59.5934C119.715 59.5942 119.357 59.5939 118.999 59.5933C118.623 59.5928 118.246 59.5932 117.87 59.5936C117.24 59.5939 116.609 59.5934 115.979 59.5925C115.251 59.5914 114.522 59.5918 113.793 59.5929C113.166 59.5938 112.538 59.5939 111.91 59.5934C111.536 59.5931 111.162 59.593 110.788 59.5937C110.373 59.5944 109.957 59.5934 109.542 59.5923C109.418 59.5927 109.294 59.5931 109.166 59.5935C108.997 59.5927 108.997 59.5927 108.825 59.5918C108.727 59.5917 108.629 59.5917 108.528 59.5916C108.295 59.5664 108.295 59.5664 108.095 59.3665C108.054 58.9895 108.12 58.7615 108.305 58.4352C108.374 58.3106 108.374 58.3106 108.445 58.1835C108.497 58.0935 108.548 58.0036 108.601 57.9109C108.713 57.7113 108.824 57.5116 108.935 57.3119C109.024 57.1538 109.024 57.1538 109.114 56.9926C110.283 54.8913 111.382 52.751 112.472 50.6079C112.596 50.3659 112.719 50.1242 112.842 49.8824C113.971 47.6705 115.035 45.4406 116.023 43.1625C116.171 42.8199 116.323 42.4786 116.475 42.1377C118.699 37.1683 120.611 32.0701 122.457 26.9507C122.602 26.5464 122.749 26.1424 122.895 25.7384C122.954 25.5765 123.013 25.4144 123.071 25.2524C123.139 25.0656 123.208 24.8793 123.277 24.693C123.312 24.5985 123.346 24.504 123.382 24.4066C123.551 24.0506 123.685 23.9065 124.07 23.8125ZM124.289 27.0799C124.185 27.3543 124.083 27.6292 123.982 27.9046C123.953 27.9823 123.924 28.0599 123.893 28.14C123.866 28.2154 123.838 28.2908 123.81 28.3684C123.785 28.4375 123.759 28.5066 123.732 28.5778C123.648 28.9686 123.81 29.2424 124.011 29.5703C124.056 29.6454 124.101 29.7205 124.148 29.7979C124.221 29.9183 124.221 29.9183 124.295 30.0412C126.74 34.1961 127.349 38.986 126.157 43.648C124.97 48.0561 122.034 51.7296 118.098 53.9969C117.08 54.5665 116.043 55.1014 115.01 55.6429C114.146 56.0963 113.29 56.5643 112.436 57.0345C111.989 57.2797 111.541 57.5234 111.094 57.7672C111.094 57.8002 111.094 57.8331 111.094 57.8671C112.392 57.8718 113.691 57.8753 114.989 57.8775C115.592 57.8785 116.195 57.8799 116.798 57.8822C117.381 57.8844 117.965 57.8856 118.548 57.8861C118.769 57.8865 118.99 57.8872 119.211 57.8883C120.869 57.8961 122.544 57.892 124.145 57.4048C124.232 57.379 124.319 57.3531 124.409 57.3265C126.152 56.7866 127.58 55.8963 128.968 54.7247C129.03 54.6727 129.091 54.6206 129.155 54.567C129.303 54.4389 129.445 54.3043 129.586 54.1687C129.586 54.1027 129.586 54.0367 129.586 53.9687C129.652 53.9687 129.718 53.9687 129.786 53.9687C129.965 53.7708 130.129 53.573 130.292 53.3627C130.341 53.2996 130.39 53.2365 130.441 53.1715C132.554 50.3936 133.431 47.0546 133.039 43.5813C132.98 43.1718 132.891 42.7731 132.785 42.3736C132.767 42.3038 132.748 42.234 132.73 42.1622C132.263 40.4519 131.375 38.9195 130.454 37.417C130.09 36.821 129.739 36.2168 129.386 35.6139C129.313 35.488 129.239 35.3622 129.165 35.2364C129.053 35.0438 128.94 34.8513 128.827 34.6587C128.568 34.2154 128.308 33.7723 128.048 33.3293C127.379 32.1882 126.71 31.0466 126.044 29.9037C125.931 29.7106 125.819 29.5174 125.706 29.3243C125.498 28.9674 125.29 28.6102 125.083 28.2528C124.991 28.0951 124.899 27.9373 124.807 27.7796C124.766 27.7077 124.724 27.6359 124.681 27.5618C124.587 27.3995 124.488 27.2394 124.388 27.0799C124.356 27.0799 124.323 27.0799 124.289 27.0799Z" fill="#009C39"/>
<path d="M38.3554 84.3261C38.9605 84.8468 39.4752 85.352 39.5421 86.1866C39.5498 86.4714 39.5508 86.7555 39.5497 87.0404C39.5503 87.2044 39.5503 87.2044 39.5509 87.3717C39.5519 87.7382 39.5515 88.1047 39.5511 88.4712C39.5515 88.7339 39.5521 88.9966 39.5526 89.2593C39.5539 89.8989 39.5541 90.5385 39.5539 91.1782C39.5537 91.6981 39.5539 92.2181 39.5543 92.7381C39.5543 92.8121 39.5544 92.8862 39.5545 92.9624C39.5546 93.1129 39.5547 93.2633 39.5548 93.4137C39.5559 94.824 39.5557 96.2342 39.5551 97.6445C39.5546 98.9341 39.5557 100.224 39.5576 101.513C39.5595 102.838 39.5604 104.163 39.56 105.488C39.5598 106.231 39.56 106.975 39.5615 107.718C39.5628 108.417 39.5625 109.116 39.5612 109.816C39.561 110.072 39.5613 110.329 39.5621 110.585C39.5631 110.936 39.5623 111.286 39.5611 111.636C39.5618 111.738 39.5625 111.839 39.5633 111.944C39.5569 112.777 39.3861 113.455 38.8118 114.084C37.7875 114.96 36.4979 114.942 35.2254 114.845C34.5558 114.709 33.992 114.455 33.5261 113.945C33.1673 113.344 32.9143 112.792 32.9132 112.087C32.9129 111.995 32.9125 111.902 32.9121 111.808C32.9122 111.707 32.9123 111.606 32.9123 111.502C32.912 111.394 32.9117 111.287 32.9114 111.176C32.9106 110.815 32.9104 110.453 32.9103 110.092C32.9098 109.833 32.9093 109.575 32.9088 109.316C32.9074 108.613 32.9068 107.909 32.9064 107.206C32.9061 106.767 32.9057 106.327 32.9052 105.888C32.904 104.671 32.903 103.454 32.9026 102.237C32.9026 102.159 32.9026 102.082 32.9026 102.001C32.9025 101.923 32.9025 101.845 32.9025 101.765C32.9025 101.607 32.9024 101.448 32.9024 101.29C32.9023 101.212 32.9023 101.133 32.9023 101.053C32.9019 99.7817 32.9002 98.5109 32.8978 97.2401C32.8955 95.9349 32.8942 94.6297 32.8941 93.3245C32.894 92.5918 32.8934 91.8592 32.8916 91.1266C32.8899 90.4373 32.8898 89.7481 32.8906 89.0588C32.8907 88.806 32.8903 88.5531 32.8893 88.3003C32.888 87.9548 32.8886 87.6094 32.8896 87.2639C32.8888 87.1641 32.888 87.0643 32.8872 86.9615C32.8937 86.0356 33.0862 85.3095 33.7311 84.6295C34.9482 83.5539 36.9789 83.6249 38.3554 84.3261Z" fill="#009C39"/>
<path d="M170.307 84.3311C170.894 84.8344 171.404 85.3967 171.497 86.1948C171.508 86.4807 171.509 86.7652 171.507 87.0512C171.508 87.1607 171.508 87.2701 171.508 87.3828C171.51 87.749 171.509 88.1152 171.508 88.4813C171.508 88.7441 171.509 89.0068 171.509 89.2695C171.511 89.9088 171.51 90.548 171.51 91.1873C171.509 91.707 171.509 92.2267 171.509 92.7464C171.509 92.8204 171.509 92.8944 171.509 92.9707C171.509 93.1211 171.509 93.2715 171.51 93.4219C171.51 94.8315 171.509 96.2411 171.508 97.6507C171.506 98.8595 171.507 100.068 171.508 101.277C171.51 102.681 171.51 104.086 171.509 105.49C171.509 105.64 171.509 105.79 171.509 105.94C171.509 106.014 171.509 106.087 171.509 106.163C171.509 106.682 171.509 107.201 171.51 107.72C171.511 108.419 171.51 109.118 171.508 109.816C171.508 110.073 171.508 110.329 171.509 110.586C171.51 110.936 171.509 111.286 171.507 111.636C171.508 111.737 171.508 111.839 171.509 111.943C171.502 112.776 171.331 113.455 170.757 114.083C169.733 114.958 168.443 114.941 167.171 114.843C166.501 114.708 165.937 114.454 165.471 113.944C165.113 113.343 164.86 112.791 164.859 112.086C164.858 111.993 164.858 111.901 164.857 111.806C164.857 111.705 164.858 111.605 164.858 111.501C164.857 111.393 164.857 111.286 164.857 111.175C164.856 110.814 164.856 110.452 164.856 110.091C164.855 109.832 164.855 109.574 164.854 109.315C164.853 108.612 164.852 107.908 164.852 107.205C164.851 106.765 164.851 106.326 164.851 105.887C164.849 104.67 164.848 103.453 164.848 102.236C164.848 102.158 164.848 102.08 164.848 102C164.848 101.922 164.848 101.844 164.848 101.764C164.848 101.605 164.848 101.447 164.848 101.289C164.848 101.211 164.848 101.132 164.848 101.051C164.847 99.7805 164.845 98.5097 164.843 97.2389C164.841 95.9337 164.84 94.6285 164.839 93.3233C164.839 92.5907 164.839 91.858 164.837 91.1254C164.835 90.4362 164.835 89.7469 164.836 89.0576C164.836 88.8048 164.836 88.5519 164.835 88.2991C164.833 87.9536 164.834 87.6082 164.835 87.2627C164.834 87.1629 164.833 87.0631 164.833 86.9603C164.839 86.0345 165.032 85.3083 165.676 84.6283C166.893 83.5528 168.934 83.6193 170.307 84.3311Z" fill="#009C39"/>
<path d="M181.072 127.932C181.467 128.212 181.822 128.496 182.164 128.838C182.214 128.195 182.214 128.195 182.264 127.538C183.254 127.538 184.244 127.538 185.263 127.538C185.27 129.415 185.276 131.292 185.279 133.169C185.28 134.041 185.282 134.912 185.286 135.784C185.289 136.544 185.291 137.305 185.291 138.065C185.292 138.467 185.293 138.869 185.295 139.271C185.297 139.651 185.298 140.03 185.297 140.41C185.297 140.613 185.299 140.816 185.301 141.02C185.294 142.884 184.874 144.569 183.561 145.943C182.226 147.22 180.636 147.481 178.862 147.472C177.139 147.431 175.775 146.901 174.557 145.668C174.371 145.435 174.326 145.314 174.268 145.031C174.541 144.763 174.817 144.497 175.092 144.231C175.17 144.155 175.248 144.079 175.328 144C175.403 143.928 175.479 143.856 175.556 143.782C175.66 143.681 175.66 143.681 175.766 143.579C175.967 143.432 175.967 143.432 176.367 143.432C176.542 143.589 176.542 143.589 176.723 143.8C177.372 144.479 178.156 144.795 179.09 144.837C179.995 144.817 180.755 144.613 181.465 144.032C182.115 143.266 182.193 142.466 182.177 141.495C182.176 141.393 182.175 141.291 182.174 141.185C182.172 140.935 182.169 140.684 182.164 140.433C182.127 140.48 182.089 140.527 182.05 140.575C181.264 141.521 180.314 141.934 179.094 142.06C177.728 142.109 176.545 141.726 175.498 140.864C174.255 139.705 173.94 138.067 173.868 136.435C173.85 135.833 173.845 135.231 173.843 134.629C173.842 134.553 173.842 134.478 173.841 134.4C173.837 133.569 173.862 132.749 173.956 131.924C173.964 131.856 173.971 131.789 173.979 131.719C174.164 130.266 174.723 129.016 175.886 128.094C177.389 127.092 179.522 126.952 181.072 127.932ZM177.336 131.047C176.739 132.071 176.82 133.239 176.828 134.386C176.829 134.691 176.828 134.996 176.826 135.301C176.826 135.498 176.826 135.695 176.827 135.892C176.826 135.981 176.826 136.071 176.825 136.164C176.836 137.198 177.095 138.052 177.829 138.802C178.453 139.29 179.294 139.427 180.065 139.333C180.821 139.203 181.366 138.921 181.865 138.334C182.275 137.61 182.324 136.907 182.318 136.091C182.318 135.975 182.318 135.859 182.319 135.74C182.319 135.496 182.318 135.252 182.317 135.008C182.314 134.636 182.317 134.266 182.319 133.894C182.319 133.656 182.318 133.418 182.318 133.18C182.318 133.07 182.319 132.96 182.32 132.847C182.311 132.086 182.214 131.343 181.7 130.746C181.104 130.179 180.486 130.021 179.678 129.994C178.654 130.022 178.028 130.293 177.336 131.047Z" fill="#009C39"/>
<path d="M12.6641 123.099C13.8567 124.13 14.9192 125.557 15.2337 127.139C15.2337 127.337 15.2337 127.535 15.2337 127.738C14.2441 127.738 13.2546 127.738 12.235 127.738C12.07 127.343 11.9051 126.947 11.7352 126.539C11.1097 125.604 10.2257 124.999 9.13626 124.74C7.92618 124.626 6.87152 124.788 5.91533 125.571C4.88909 126.545 4.59416 127.805 4.51961 129.181C4.51202 129.539 4.51043 129.898 4.51161 130.257C4.51142 130.387 4.51123 130.518 4.51103 130.652C4.51074 130.927 4.51116 131.201 4.5121 131.475C4.51324 131.823 4.51258 132.171 4.51139 132.519C4.51048 132.856 4.51112 133.193 4.51161 133.53C4.51121 133.653 4.5108 133.776 4.51039 133.903C4.5178 135.289 4.69782 136.741 5.57328 137.875C6.40243 138.678 7.40316 139.017 8.53651 139.034C9.57405 138.967 10.5605 138.572 11.2791 137.809C11.7362 137.247 12.0592 136.638 12.235 135.935C13.2246 135.935 14.2142 135.935 15.2337 135.935C15.0438 137.644 14.3254 138.918 13.1346 140.133C13.0755 140.196 13.0163 140.259 12.9554 140.323C11.6515 141.593 9.86333 141.985 8.10819 141.975C6.22517 141.927 4.67409 141.283 3.33866 139.933C3.25613 139.856 3.25613 139.856 3.17194 139.777C1.63622 138.2 1.42373 135.777 1.42266 133.71C1.42234 133.562 1.422 133.414 1.42165 133.267C1.42106 132.958 1.42087 132.649 1.42093 132.34C1.42094 131.949 1.41958 131.557 1.41785 131.165C1.41673 130.86 1.41654 130.555 1.41659 130.25C1.41647 130.106 1.41604 129.962 1.41526 129.817C1.40351 127.431 1.86144 125.279 3.55186 123.501C4.35299 122.772 5.28839 122.225 6.33742 121.941C6.41847 121.919 6.49952 121.896 6.58302 121.873C8.62259 121.413 11.0173 121.756 12.6641 123.099Z" fill="#009C39"/>
<path d="M105.097 121.941C106.086 121.941 107.076 121.941 108.095 121.941C108.128 124.283 108.161 126.625 108.195 129.038C108.327 128.874 108.459 128.709 108.595 128.539C109.726 127.584 110.933 127.245 112.394 127.339C113.722 127.524 114.75 128.086 115.592 129.138C116.379 130.395 116.609 131.742 116.603 133.2C116.603 133.292 116.603 133.385 116.603 133.481C116.603 133.785 116.602 134.089 116.602 134.392C116.601 134.604 116.601 134.816 116.601 135.028C116.601 135.583 116.6 136.139 116.599 136.694C116.598 137.262 116.597 137.829 116.597 138.397C116.596 139.509 116.594 140.621 116.592 141.733C115.602 141.733 114.613 141.733 113.593 141.733C113.592 141.451 113.591 141.168 113.59 140.877C113.587 139.942 113.581 139.006 113.575 138.071C113.571 137.504 113.568 136.937 113.566 136.37C113.565 135.822 113.561 135.274 113.556 134.727C113.555 134.518 113.554 134.31 113.554 134.101C113.554 133.808 113.551 133.515 113.548 133.222C113.548 133.137 113.549 133.052 113.549 132.964C113.537 132.243 113.355 131.563 112.897 130.994C112.114 130.374 111.405 130.168 110.394 130.238C109.748 130.317 109.186 130.498 108.695 130.938C108.257 131.586 108.122 132.18 108.129 132.95C108.128 133.094 108.128 133.094 108.126 133.24C108.123 133.553 108.124 133.865 108.125 134.178C108.123 134.396 108.122 134.614 108.12 134.832C108.116 135.404 108.115 135.975 108.115 136.547C108.114 137.131 108.11 137.716 108.107 138.3C108.1 139.444 108.097 140.589 108.095 141.733C107.106 141.733 106.116 141.733 105.097 141.733C105.097 135.202 105.097 128.671 105.097 121.941Z" fill="#009C39"/>
<path d="M85.3047 128.338C86.9172 129.708 87.4495 131.602 87.7037 133.636C87.7037 134.361 87.7037 135.087 87.7037 135.835C84.8009 135.868 81.8981 135.901 78.9073 135.935C79.1438 137.425 79.1438 137.425 80.076 138.479C81.0454 139.127 82.1719 139.17 83.2949 138.986C84.0439 138.789 84.6672 138.359 85.3047 137.934C85.8421 137.978 86.177 138.455 86.5354 138.815C86.6107 138.887 86.686 138.96 86.7636 139.034C86.8696 139.14 86.8696 139.14 86.9778 139.248C87.0428 139.312 87.1077 139.376 87.1747 139.443C87.3038 139.633 87.3038 139.633 87.2879 139.844C86.8539 140.82 85.1426 141.384 84.2239 141.742C82.489 142.284 80.4804 142.001 78.8636 141.251C77.5581 140.55 76.7578 139.436 76.3084 138.034C76.0048 136.956 75.9803 135.879 75.9773 134.766C75.9767 134.637 75.9762 134.508 75.9756 134.374C75.9906 132.359 76.3234 130.385 77.739 128.856C79.6674 127.057 83.1775 126.671 85.3047 128.338ZM79.7511 130.902C79.1121 131.682 78.9073 132.434 78.9073 133.436C80.8865 133.436 82.8657 133.436 84.9048 133.436C84.6472 131.811 84.6472 131.811 83.7053 130.537C82.5262 129.698 80.7571 129.838 79.7511 130.902Z" fill="#009C39"/>
<path d="M54.061 128.416C55.5067 129.606 56.0611 131.447 56.3167 133.236C56.3167 134.094 56.3167 134.951 56.3167 135.835C53.4139 135.835 50.5111 135.835 47.5204 135.835C47.812 137.477 47.812 137.477 48.8573 138.578C49.8134 139.148 50.9764 139.178 52.0536 138.969C52.6926 138.776 53.1843 138.482 53.7022 138.063C53.9177 137.934 53.9177 137.934 54.1066 137.955C54.5352 138.116 54.8305 138.496 55.1484 138.815C55.2238 138.888 55.2991 138.96 55.3767 139.035C55.4827 139.14 55.4827 139.14 55.5908 139.248C55.6558 139.312 55.7208 139.377 55.7878 139.443C55.9169 139.634 55.9169 139.634 55.8985 139.846C55.4862 140.794 53.9943 141.292 53.1016 141.665C51.3366 142.277 49.2727 142.061 47.5891 141.314C46.2567 140.591 45.3968 139.385 44.935 137.969C44.6821 137.003 44.6691 136.055 44.6714 135.062C44.6715 134.776 44.6674 134.49 44.6629 134.203C44.6518 132.485 44.9042 130.863 45.921 129.438C45.9682 129.371 46.0153 129.304 46.0639 129.234C46.9138 128.142 48.2941 127.569 49.6328 127.367C51.2635 127.207 52.7234 127.437 54.061 128.416ZM48.1838 131.108C47.6917 131.819 47.5204 132.581 47.5204 133.436C49.4995 133.436 51.4787 133.436 53.5179 133.436C53.4027 132.285 53.1895 131.395 52.3434 130.569C51.0544 129.651 49.1889 129.847 48.1838 131.108Z" fill="#009C39"/>
<path d="M27.9171 128.563C29.0627 129.627 29.4971 131.015 29.5539 132.544C29.5663 133.131 29.562 133.717 29.5574 134.304C29.5569 134.519 29.5564 134.734 29.5561 134.949C29.555 135.511 29.5521 136.072 29.5487 136.634C29.5456 137.209 29.5443 137.784 29.5428 138.359C29.5396 139.483 29.5343 140.608 29.5281 141.732C28.6045 141.732 27.6809 141.732 26.7293 141.732C26.6963 141.468 26.6633 141.204 26.6293 140.932C26.5592 140.993 26.4891 141.053 26.4169 141.116C26.127 141.334 25.8654 141.465 25.5298 141.601C25.4288 141.643 25.3278 141.684 25.2237 141.727C23.6778 142.28 21.6536 142.044 20.1699 141.422C19.2954 140.987 18.6995 140.325 18.3293 139.426C17.8928 138.099 17.9073 136.634 18.4581 135.34C19.0056 134.365 19.7861 133.791 20.8466 133.471C22.1172 133.154 23.4562 133.223 24.7551 133.229C24.9375 133.23 25.1198 133.23 25.3022 133.231C25.7445 133.232 26.1869 133.234 26.6293 133.236C26.6169 133.013 26.6034 132.79 26.5895 132.567C26.5821 132.443 26.5747 132.319 26.5671 132.191C26.4987 131.547 26.2865 131.055 25.8234 130.599C25.1931 130.112 24.312 129.941 23.5306 130.037C22.6801 130.161 21.9894 130.361 21.262 130.826C21.0317 130.937 21.0317 130.937 20.838 130.928C20.55 130.801 20.3041 130.634 20.0446 130.456C19.8934 130.353 19.8934 130.353 19.7392 130.247C19.6379 130.178 19.5367 130.109 19.4323 130.037C19.2328 129.903 19.0327 129.77 18.8326 129.637C18.8805 129.205 19.1143 129.016 19.4323 128.738C21.7619 126.937 25.5486 126.708 27.9171 128.563ZM21.1316 136.334C20.7865 136.983 20.7754 137.626 20.9317 138.334C21.171 138.895 21.5489 139.083 22.0777 139.335C23.226 139.779 24.9001 139.657 26.0296 139.233C26.329 139.065 26.572 138.893 26.6928 138.557C26.7397 138.27 26.7404 137.995 26.7391 137.704C26.7387 137.584 26.7384 137.463 26.7381 137.339C26.7372 137.214 26.7364 137.088 26.7355 136.959C26.7351 136.832 26.7346 136.705 26.7342 136.575C26.733 136.261 26.7314 135.948 26.7293 135.635C26.1639 135.627 25.5986 135.622 25.0332 135.618C24.8413 135.617 24.6493 135.615 24.4574 135.612C24.18 135.608 23.9026 135.607 23.6251 135.605C23.5406 135.604 23.4561 135.602 23.3691 135.601C22.592 135.6 21.666 135.719 21.1316 136.334Z" fill="#009C39"/>
<path d="M168.864 128.712C169.951 129.767 170.548 131.293 170.587 132.799C170.59 132.98 170.592 133.16 170.593 133.34C170.594 133.438 170.595 133.535 170.596 133.635C170.597 133.841 170.598 134.046 170.599 134.252C170.6 134.46 170.602 134.667 170.605 134.874C170.635 136.94 170.476 138.873 169.014 140.47C167.621 141.77 165.894 142.01 164.06 141.967C162.917 141.916 161.902 141.617 160.974 140.932C160.897 140.877 160.82 140.822 160.741 140.765C159.469 139.753 158.975 138.197 158.794 136.641C158.739 136.057 158.741 135.47 158.743 134.884C158.743 134.655 158.741 134.425 158.738 134.196C158.73 132.211 159.041 130.389 160.411 128.875C162.692 126.811 166.478 126.746 168.864 128.712ZM162.411 131.093C161.674 132.061 161.711 133.193 161.721 134.352C161.723 134.634 161.721 134.916 161.719 135.199C161.717 136.356 161.779 137.43 162.518 138.383C163.241 139.081 164.058 139.164 165.017 139.154C165.728 139.112 166.292 138.911 166.815 138.418C167.699 137.375 167.705 135.991 167.696 134.691C167.697 134.579 167.697 134.466 167.698 134.35C167.695 133.137 167.657 131.914 166.834 130.961C166.116 130.347 165.435 130.083 164.483 130.111C163.659 130.211 163.005 130.512 162.411 131.093Z" fill="#009C39"/>
<path d="M145.28 128.339C146.537 129.325 147.189 130.67 147.408 132.241C147.5 133.025 147.499 133.811 147.498 134.599C147.498 134.67 147.498 134.741 147.498 134.814C147.492 136.885 147.337 138.839 145.877 140.459C144.577 141.7 143.014 141.984 141.283 141.976C139.788 141.94 138.412 141.556 137.302 140.509C135.822 138.929 135.648 137.013 135.653 134.95C135.653 134.657 135.651 134.364 135.648 134.07C135.641 132.053 135.939 130.274 137.36 128.749C139.36 126.821 143.037 126.873 145.28 128.339ZM139.383 130.938C138.508 132.006 138.565 133.301 138.564 134.611C138.563 134.741 138.562 134.87 138.561 135.003C138.559 136.24 138.587 137.444 139.439 138.413C140.158 139.093 140.975 139.193 141.937 139.17C142.573 139.105 143.064 138.908 143.562 138.51C144.263 137.629 144.512 136.839 144.511 135.718C144.511 135.59 144.511 135.59 144.512 135.46C144.512 135.28 144.513 135.101 144.512 134.922C144.512 134.65 144.514 134.379 144.517 134.107C144.522 132.665 144.38 131.683 143.362 130.607C142.1 129.85 140.484 129.967 139.383 130.938Z" fill="#009C39"/>
<path d="M130.398 128.399C130.85 128.797 131.14 129.26 131.417 129.788C131.466 129.877 131.466 129.877 131.516 129.969C132.198 131.356 132.127 132.967 132.115 134.47C132.114 134.681 132.114 134.891 132.114 135.102C132.112 135.651 132.109 136.2 132.106 136.749C132.103 137.311 132.102 137.873 132.1 138.435C132.097 139.534 132.092 140.634 132.086 141.733C131.096 141.733 130.106 141.733 129.087 141.733C129.086 141.45 129.085 141.168 129.084 140.877C129.081 139.941 129.075 139.006 129.068 138.07C129.064 137.503 129.061 136.936 129.06 136.369C129.058 135.822 129.055 135.274 129.05 134.726C129.049 134.518 129.048 134.309 129.048 134.101C129.047 133.808 129.045 133.515 129.041 133.222C129.042 133.137 129.042 133.051 129.043 132.964C129.031 132.243 128.849 131.562 128.391 130.993C127.608 130.373 126.898 130.167 125.888 130.238C125.25 130.316 124.666 130.49 124.189 130.937C123.631 131.753 123.575 132.591 123.569 133.551C123.567 133.684 123.567 133.684 123.566 133.82C123.562 134.112 123.56 134.403 123.557 134.695C123.555 134.898 123.553 135.101 123.551 135.303C123.546 135.836 123.541 136.369 123.536 136.901C123.531 137.445 123.525 137.989 123.52 138.534C123.509 139.6 123.499 140.666 123.489 141.733C122.533 141.733 121.576 141.733 120.59 141.733C120.59 137.049 120.59 132.365 120.59 127.539C121.547 127.539 122.504 127.539 123.489 127.539C123.539 128.33 123.539 128.33 123.589 129.138C123.729 128.985 123.869 128.833 124.014 128.676C125.788 126.902 128.447 126.917 130.398 128.399Z" fill="#009C39"/>
<path d="M187.462 127.539C188.419 127.539 189.376 127.539 190.361 127.539C191.006 129.224 191.608 130.92 192.199 132.623C192.263 132.808 192.327 132.993 192.392 133.178C192.423 133.268 192.454 133.359 192.487 133.452C192.903 134.649 193.33 135.843 193.76 137.035C193.929 136.782 194.014 136.611 194.107 136.329C194.135 136.247 194.162 136.165 194.19 136.08C194.22 135.99 194.249 135.9 194.28 135.808C194.311 135.713 194.343 135.619 194.375 135.521C194.479 135.21 194.582 134.898 194.684 134.586C194.756 134.371 194.827 134.156 194.899 133.941C195.26 132.851 195.618 131.759 195.972 130.666C196.005 130.567 196.037 130.467 196.071 130.364C196.225 129.887 196.38 129.41 196.533 128.933C196.588 128.762 196.644 128.591 196.699 128.421C196.724 128.342 196.749 128.264 196.775 128.183C196.947 127.651 196.947 127.651 197.058 127.539C197.273 127.53 197.488 127.529 197.702 127.53C197.833 127.53 197.963 127.53 198.098 127.53C198.236 127.531 198.375 127.532 198.514 127.533C198.653 127.534 198.792 127.534 198.932 127.534C199.273 127.536 199.615 127.537 199.957 127.539C199.901 127.999 199.815 128.414 199.663 128.851C199.623 128.968 199.583 129.086 199.541 129.207C199.497 129.334 199.452 129.462 199.408 129.59C199.361 129.724 199.315 129.859 199.268 129.994C199.144 130.356 199.018 130.719 198.892 131.081C198.76 131.461 198.629 131.841 198.498 132.221C198.26 132.911 198.021 133.602 197.781 134.292C197.543 134.979 197.306 135.666 197.069 136.353C196.85 136.986 196.631 137.618 196.411 138.251C196.069 139.236 195.728 140.222 195.393 141.209C195.23 141.689 195.066 142.169 194.902 142.649C194.825 142.877 194.748 143.105 194.671 143.333C194.564 143.649 194.457 143.965 194.349 144.28C194.318 144.372 194.287 144.464 194.256 144.559C193.911 145.557 193.388 146.627 192.43 147.159C191.904 147.401 191.444 147.544 190.863 147.541C190.778 147.54 190.694 147.54 190.607 147.54C190.501 147.539 190.395 147.538 190.286 147.537C189.948 147.535 189.61 147.533 189.262 147.531C189.262 146.607 189.262 145.684 189.262 144.732C189.69 144.699 190.119 144.666 190.561 144.632C191.049 144.461 191.265 144.25 191.561 143.833C191.682 143.574 191.778 143.309 191.873 143.039C191.898 142.97 191.923 142.901 191.949 142.83C191.998 142.694 192.046 142.558 192.094 142.422C192.153 142.253 192.219 142.087 192.285 141.92C192.457 141.268 192.127 140.625 191.902 140.017C191.865 139.917 191.828 139.816 191.79 139.712C191.668 139.38 191.546 139.048 191.423 138.716C191.338 138.483 191.252 138.25 191.167 138.017C190.57 136.393 189.966 134.771 189.362 133.149C189.302 132.99 189.302 132.99 189.241 132.827C189.125 132.514 189.008 132.202 188.891 131.889C188.854 131.79 188.818 131.69 188.779 131.588C188.58 131.055 188.381 130.522 188.181 129.989C188.073 129.701 187.966 129.414 187.86 129.126C187.789 128.939 187.719 128.751 187.648 128.563C187.608 128.455 187.568 128.347 187.526 128.235C187.492 128.143 187.457 128.051 187.422 127.956C187.362 127.739 187.362 127.739 187.462 127.539Z" fill="#009C39"/>
<path d="M101.462 128.739C101.76 128.99 101.988 129.208 102.198 129.537C102.191 129.862 102.074 129.962 101.847 130.199C101.742 130.294 101.636 130.388 101.529 130.481C101.477 130.527 101.426 130.574 101.372 130.622C101.268 130.715 101.163 130.807 101.057 130.899C100.949 130.992 100.843 131.088 100.739 131.186C100.354 131.537 100.354 131.537 100.081 131.535C99.8821 131.428 99.7373 131.312 99.5737 131.156C98.8272 130.493 97.9093 130.184 96.9088 130.219C96.011 130.296 95.1424 130.518 94.534 131.233C93.8555 132.272 93.883 133.412 93.8824 134.61C93.8805 134.79 93.8805 134.79 93.8786 134.973C93.8765 136.265 93.9486 137.435 94.8632 138.415C95.738 139.053 96.7488 139.144 97.7995 139.033C98.5506 138.866 99.1166 138.525 99.6987 138.034C99.8651 137.9 100.032 137.767 100.198 137.634C100.579 137.983 100.959 138.333 101.337 138.684C101.471 138.809 101.607 138.932 101.744 139.055C101.935 139.233 101.935 139.233 102.198 139.533C102.155 139.963 101.909 140.149 101.598 140.433C101.551 140.48 101.504 140.528 101.455 140.577C100.086 141.881 98.1895 142.008 96.4059 141.967C95.0212 141.907 93.4923 141.446 92.5017 140.433C91.1174 138.756 90.8494 137.034 90.8632 134.927C90.8649 134.636 90.8633 134.345 90.8613 134.054C90.8589 132.093 91.1314 130.328 92.5571 128.856C94.9546 126.715 98.9724 126.826 101.462 128.739Z" fill="#009C39"/>
<path d="M68.0893 123.43C68.2102 123.43 68.3312 123.431 68.4558 123.431C68.5732 123.432 68.6907 123.432 68.8117 123.432C68.9621 123.433 69.1125 123.434 69.2675 123.435C69.7438 123.437 70.22 123.439 70.7107 123.441C70.7107 124.793 70.7107 126.146 70.7107 127.539C71.4034 127.539 72.0961 127.539 72.8098 127.539C72.8098 128.43 72.8098 129.321 72.8098 130.238C72.1171 130.238 71.4244 130.238 70.7107 130.238C70.7147 131.313 70.7204 132.388 70.7291 133.463C70.733 133.962 70.7362 134.461 70.7378 134.96C70.7393 135.442 70.7427 135.923 70.7475 136.405C70.749 136.588 70.7498 136.772 70.7498 136.956C70.7501 137.213 70.7528 137.47 70.7561 137.728C70.7556 137.804 70.7551 137.88 70.7545 137.959C70.7613 138.302 70.7857 138.5 70.9897 138.781C71.3176 139.009 71.6494 139.002 72.0351 139.01C72.2908 139.018 72.5464 139.026 72.8098 139.035C72.8098 139.958 72.8098 140.882 72.8098 141.833C72.247 141.843 72.247 141.843 71.6728 141.852C71.4986 141.856 71.4986 141.856 71.3208 141.86C70.298 141.868 69.4354 141.692 68.6561 140.995C67.4975 139.807 67.6974 137.916 67.7022 136.388C67.7023 136.21 67.7025 136.032 67.7026 135.854C67.703 135.389 67.7039 134.924 67.7051 134.459C67.7061 133.984 67.7065 133.508 67.707 133.032C67.7081 132.101 67.7098 131.169 67.7119 130.238C67.2501 130.238 66.7883 130.238 66.3125 130.238C66.3125 129.348 66.3125 128.457 66.3125 127.539C66.7743 127.539 67.2361 127.539 67.7119 127.539C67.7114 127.419 67.7109 127.298 67.7103 127.174C67.7085 126.728 67.7074 126.282 67.7064 125.837C67.7059 125.643 67.7052 125.45 67.7044 125.257C67.7032 124.98 67.7026 124.703 67.7022 124.425C67.7016 124.338 67.7011 124.252 67.7006 124.162C67.7006 123.955 67.7057 123.748 67.7119 123.541C67.8119 123.441 67.8119 123.441 68.0893 123.43Z" fill="#009C39"/>
<path d="M151.178 121.941C152.167 121.941 153.157 121.941 154.176 121.941C154.177 122.15 154.177 122.358 154.177 122.573C154.181 124.534 154.187 126.495 154.195 128.455C154.199 129.464 154.202 130.472 154.203 131.48C154.205 132.358 154.207 133.237 154.212 134.115C154.214 134.581 154.216 135.046 154.215 135.511C154.215 135.949 154.217 136.387 154.22 136.824C154.221 136.985 154.221 137.146 154.221 137.307C154.22 137.526 154.222 137.745 154.224 137.965C154.225 138.088 154.225 138.21 154.225 138.337C154.249 138.641 154.249 138.641 154.455 138.823C154.791 138.992 155.132 138.992 155.501 139.003C155.884 139.019 155.884 139.019 156.275 139.034C156.275 139.958 156.275 140.882 156.275 141.833C155.713 141.842 155.713 141.842 155.138 141.852C154.964 141.856 154.964 141.856 154.786 141.86C153.787 141.868 152.959 141.701 152.181 141.048C151.123 139.937 151.148 138.519 151.155 137.079C151.155 136.914 151.155 136.748 151.155 136.583C151.155 136.136 151.156 135.689 151.157 135.242C151.159 134.774 151.159 134.306 151.159 133.838C151.159 132.953 151.161 132.068 151.163 131.183C151.165 130.175 151.166 129.167 151.167 128.159C151.17 126.086 151.173 124.014 151.178 121.941Z" fill="#009C39"/>
<path d="M42.8163 128.113C42.9533 128.219 43.0895 128.327 43.2223 128.438C43.0606 128.97 42.7169 129.363 42.3789 129.794C42.2625 129.944 42.146 130.094 42.0295 130.244C41.9779 130.31 41.9263 130.376 41.8731 130.444C41.7209 130.64 41.5715 130.838 41.4231 131.037C41.1707 130.916 40.9375 130.784 40.6984 130.637C39.9555 130.213 39.1483 130.133 38.3181 130.312C37.6827 130.493 37.1923 130.762 36.833 131.331C36.5022 131.962 36.495 132.695 36.4933 133.392C36.4922 133.483 36.4912 133.573 36.4902 133.667C36.4871 133.964 36.4854 134.261 36.4837 134.558C36.4819 134.765 36.4799 134.972 36.4779 135.179C36.4728 135.722 36.4688 136.265 36.4651 136.807C36.461 137.362 36.4559 137.917 36.4509 138.472C36.4413 139.559 36.4329 140.646 36.4252 141.732C35.4686 141.732 34.512 141.732 33.5264 141.732C33.5264 137.048 33.5264 132.364 33.5264 127.538C34.483 127.538 35.4396 127.538 36.4252 127.538C36.4746 128.33 36.4746 128.33 36.5251 129.138C36.62 129.018 36.7148 128.898 36.8125 128.775C38.2916 127.087 40.9941 126.842 42.8163 128.113Z" fill="#009C39"/>
</svg>
