<svg width="16" height="16" viewBox="0 0 16 16" fill="none" xmlns="http://www.w3.org/2000/svg">
<g clip-path="url(#clip0_257_34)">
<path d="M6.82867 10.8767L4 8.04742L4.94267 7.10475L6.82867 8.99008L10.5993 5.21875L11.5427 6.16208L6.82867 10.8767Z" fill="#009C39"/>
<path fill-rule="evenodd" clip-rule="evenodd" d="M0.666504 8.00033C0.666504 3.95033 3.94984 0.666992 7.99984 0.666992C12.0498 0.666992 15.3332 3.95033 15.3332 8.00033C15.3332 12.0503 12.0498 15.3337 7.99984 15.3337C3.94984 15.3337 0.666504 12.0503 0.666504 8.00033ZM7.99984 14.0003C7.21191 14.0003 6.43169 13.8451 5.70374 13.5436C4.97578 13.2421 4.31435 12.8001 3.7572 12.243C3.20004 11.6858 2.75809 11.0244 2.45656 10.2964C2.15503 9.56847 1.99984 8.78826 1.99984 8.00033C1.99984 7.21239 2.15503 6.43218 2.45656 5.70423C2.75809 4.97627 3.20004 4.31484 3.7572 3.75768C4.31435 3.20053 4.97578 2.75858 5.70374 2.45705C6.43169 2.15552 7.21191 2.00033 7.99984 2.00033C9.59114 2.00033 11.1173 2.63247 12.2425 3.75768C13.3677 4.8829 13.9998 6.40903 13.9998 8.00033C13.9998 9.59162 13.3677 11.1177 12.2425 12.243C11.1173 13.3682 9.59114 14.0003 7.99984 14.0003Z" fill="#009C39"/>
</g>
<defs>
<clipPath id="clip0_257_34">
<rect width="16" height="16" fill="white"/>
</clipPath>
</defs>
</svg>
