<svg width="200" height="200" viewBox="0 0 200 200" fill="none" xmlns="http://www.w3.org/2000/svg">
<g clip-path="url(#clip0_218_18)">
<mask id="mask0_218_18" style="mask-type:luminance" maskUnits="userSpaceOnUse" x="-1220" y="-729" width="1698" height="1220">
<path d="M-1219.64 490.492H477.029V-728.117H-1219.64V490.492Z" fill="white"/>
</mask>
<g mask="url(#mask0_218_18)">
<path fill-rule="evenodd" clip-rule="evenodd" d="M66.5716 88.2371C58.7485 83.6642 53.5345 82.6198 47.949 82.6198C44.8453 82.6198 41.3679 83.401 40.8711 86.5366C40.4975 89.2795 42.9813 89.9355 48.1974 91.1116C57.7571 93.2027 67.4399 95.9477 68.6797 106.272L73.8979 79.2188L66.5716 88.2371ZM138.589 89.0205L152.863 69.6782H174.095L144.051 106.925L139.582 130.187H121.454L126.543 104.18L117.232 87.32L105.065 101.306L121.454 130.187H99.6026L86.8097 106.142L82.4619 130.187H64.0877L66.6947 116.334C61.7291 128.227 52.4179 132.15 39.7544 132.15C29.076 132.15 19.2679 128.749 13.9287 122.606L23.9851 110.193C28.3287 114.636 35.0372 116.988 42.113 116.988C47.0765 116.988 50.0593 115.029 50.1803 112.413C50.3055 107.97 42.9813 107.316 36.277 105.357C28.7023 103.136 20.633 97.7776 22.7432 86.5366C24.3567 77.911 31.6809 67.8482 50.3055 67.8482C60.7356 67.8482 68.4334 70.33 74.7641 75.0366L75.7555 69.6782H94.136L88.7947 95.9477L110.402 69.6782H128.655L138.589 89.0205Z" fill="url(#paint0_linear_218_18)"/>
<path d="M179.845 75.2513H181.316C181.925 75.2513 182.309 74.9583 182.462 74.3766C182.613 73.8077 182.407 73.5253 181.842 73.5253H180.299L179.845 75.2513ZM177.955 78.026L179.405 72.5382H182.201C183.437 72.5382 183.904 73.105 183.604 74.2429C183.386 75.0687 182.974 75.5634 182.367 75.7311C182.855 75.8563 183.021 76.2151 182.866 76.8074L182.543 78.026H181.388L181.656 77.0112C181.791 76.4953 181.592 76.2363 181.055 76.2363H179.584L179.112 78.026H177.955ZM182.114 71.1009C180.968 71.1009 179.883 71.5128 178.851 72.3365C177.822 73.1623 177.151 74.158 176.843 75.3277C176.535 76.4975 176.679 77.4953 177.272 78.3211C177.866 79.149 178.739 79.5609 179.885 79.5609C181.029 79.5609 182.114 79.149 183.142 78.3211C184.167 77.4953 184.836 76.4975 185.144 75.3277C185.451 74.1622 185.309 73.1687 184.719 72.3407C184.131 71.5128 183.261 71.1009 182.114 71.1009ZM182.301 70.4258C183.645 70.4258 184.666 70.9035 185.371 71.8609C186.073 72.8184 186.248 73.9733 185.891 75.3277C185.534 76.68 184.751 77.8371 183.541 78.7987C182.333 79.7583 181.055 80.2402 179.713 80.2402C178.354 80.2402 177.325 79.7583 176.616 78.8009C175.911 77.8434 175.739 76.6864 176.096 75.3277C176.452 73.9733 177.238 72.8184 178.45 71.8609C179.66 70.9035 180.944 70.4258 182.301 70.4258Z" fill="#AC0707"/>
</g>
</g>
<defs>
<linearGradient id="paint0_linear_218_18" x1="94.0118" y1="132.15" x2="94.0118" y2="67.8482" gradientUnits="userSpaceOnUse">
<stop stop-color="#AC0707"/>
<stop offset="1" stop-color="#FF0000"/>
</linearGradient>
<clipPath id="clip0_218_18">
<rect width="200" height="200" fill="white"/>
</clipPath>
</defs>
</svg>
